<svg width="26" height="24" viewBox="0 0 26 24" fill="none" xmlns="http://www.w3.org/2000/svg">
<path fill-rule="evenodd" clip-rule="evenodd" d="M9.73123e-10 23C4.35682e-10 22.4477 0.6467 22 1.44444 22L24.5556 22C25.3533 22 26 22.4477 26 23C26 23.5523 25.3533 24 24.5556 24L1.44444 24C0.6467 24 1.51056e-09 23.5523 9.73123e-10 23Z" fill="#EBF2FA"/>
<path fill-rule="evenodd" clip-rule="evenodd" d="M9.73123e-10 12C4.35682e-10 11.4477 0.6467 11 1.44444 11L24.5556 11C25.3533 11 26 11.4477 26 12C26 12.5523 25.3533 13 24.5556 13L1.44444 13C0.6467 13 1.51056e-09 12.5523 9.73123e-10 12Z" fill="#EBF2FA"/>
<path fill-rule="evenodd" clip-rule="evenodd" d="M9.73123e-10 1C4.35682e-10 0.447715 0.6467 -6.29319e-10 1.44444 -1.40562e-09L24.5556 -2.38956e-08C25.3533 -2.46719e-08 26 0.447715 26 1C26 1.55228 25.3533 2 24.5556 2L1.44444 2C0.6467 2 1.51056e-09 1.55228 9.73123e-10 1Z" fill="#EBF2FA"/>
</svg>
