<svg width="35" height="25" viewBox="0 0 35 25" fill="none" xmlns="http://www.w3.org/2000/svg">
<path fill-rule="evenodd" clip-rule="evenodd" d="M0.25 15.1443C0.111929 15.1443 -2.16447e-10 15.0323 -4.83449e-10 14.8943L-1.30531e-08 8.39427C-1.33201e-08 8.2562 0.111929 8.14427 0.25 8.14427C0.388071 8.14427 0.5 8.2562 0.5 8.39427L0.5 14.8943C0.5 15.0323 0.388071 15.1443 0.25 15.1443Z" fill="#EBF2FA"/>
<path fill-rule="evenodd" clip-rule="evenodd" d="M18.25 15.1443C18.1119 15.1443 18 15.0323 18 14.8943L18 8.39427C18 8.2562 18.1119 8.14427 18.25 8.14427C18.388 8.14427 18.5 8.2562 18.5 8.39427L18.5 14.8943C18.5 15.0323 18.388 15.1443 18.25 15.1443Z" fill="#EBF2FA"/>
<path fill-rule="evenodd" clip-rule="evenodd" d="M32.5833 15.3109C32.4452 15.3109 32.3333 15.199 32.3333 15.0609L32.3333 10.8943C32.3333 10.7562 32.4452 10.6443 32.5833 10.6443C32.7214 10.6443 32.8333 10.7562 32.8333 10.8943L32.8333 15.0609C32.8333 15.199 32.7214 15.3109 32.5833 15.3109Z" fill="#EBF2FA"/>
<path fill-rule="evenodd" clip-rule="evenodd" d="M23.1316 15.1252C23.0201 15.2068 22.8637 15.1825 22.7822 15.0711L18.0774 8.64129C17.9959 8.52986 18.0201 8.37343 18.1316 8.2919C18.243 8.21037 18.3994 8.2346 18.4809 8.34603L23.1857 14.7759C23.2672 14.8873 23.243 15.0437 23.1316 15.1252Z" fill="#EBF2FA"/>
<path fill-rule="evenodd" clip-rule="evenodd" d="M0.166653 14.8943C0.166653 14.7562 0.278582 14.6443 0.416653 14.6443L4.08332 14.6443C4.22139 14.6443 4.33332 14.7562 4.33332 14.8943C4.33332 15.0323 4.22139 15.1443 4.08332 15.1443L0.416653 15.1443C0.278582 15.1443 0.166653 15.0323 0.166653 14.8943Z" fill="#EBF2FA"/>
<path fill-rule="evenodd" clip-rule="evenodd" d="M12.1667 14.8943C12.1667 14.7562 12.2786 14.6443 12.4167 14.6443L15.0833 14.6443C15.2214 14.6443 15.3333 14.7562 15.3333 14.8943C15.3333 15.0323 15.2214 15.1443 15.0833 15.1443L12.4167 15.1443C12.2786 15.1443 12.1667 15.0323 12.1667 14.8943Z" fill="#EBF2FA"/>
<path fill-rule="evenodd" clip-rule="evenodd" d="M24.5 14.8943C24.5 14.7562 24.6119 14.6443 24.75 14.6443L28.75 14.6443C28.8881 14.6443 29 14.7562 29 14.8943C29 15.0323 28.8881 15.1443 28.75 15.1443L24.75 15.1443C24.6119 15.1443 24.5 15.0323 24.5 14.8943Z" fill="#EBF2FA"/>
<path fill-rule="evenodd" clip-rule="evenodd" d="M24.5 11.5609C24.5 11.4228 24.6119 11.3109 24.75 11.3109L28.75 11.3109C28.8881 11.3109 29 11.4228 29 11.5609C29 11.699 28.8881 11.8109 28.75 11.8109L24.75 11.8109C24.6119 11.8109 24.5 11.699 24.5 11.5609Z" fill="#EBF2FA"/>
<path fill-rule="evenodd" clip-rule="evenodd" d="M24.5 8.39426C24.5 8.25619 24.6119 8.14426 24.75 8.14426L28.75 8.14426C28.8881 8.14426 29 8.25619 29 8.39426C29 8.53233 28.8881 8.64426 28.75 8.64426L24.75 8.64426C24.6119 8.64426 24.5 8.53233 24.5 8.39426Z" fill="#EBF2FA"/>
<path fill-rule="evenodd" clip-rule="evenodd" d="M30.1667 8.39426C30.1667 8.25619 30.2786 8.14426 30.4167 8.14426H34.75C34.8881 8.14426 35 8.25619 35 8.39426C35 8.53233 34.8881 8.64426 34.75 8.64426H30.4167C30.2786 8.64426 30.1667 8.53233 30.1667 8.39426Z" fill="#EBF2FA"/>
<path fill-rule="evenodd" clip-rule="evenodd" d="M12.1667 11.3943C12.1667 11.2562 12.2786 11.1443 12.4167 11.1443L15.0833 11.1443C15.2214 11.1443 15.3333 11.2562 15.3333 11.3943C15.3333 11.5324 15.2214 11.6443 15.0833 11.6443L12.4167 11.6443C12.2786 11.6443 12.1667 11.5324 12.1667 11.3943Z" fill="#EBF2FA"/>
<path fill-rule="evenodd" clip-rule="evenodd" d="M12.1667 8.39426C12.1667 8.25619 12.2786 8.14426 12.4167 8.14426L14.9167 8.14426C15.0547 8.14426 15.1667 8.25619 15.1667 8.39426C15.1667 8.53233 15.0547 8.64426 14.9167 8.64426L12.4167 8.64426C12.2786 8.64426 12.1667 8.53233 12.1667 8.39426Z" fill="#EBF2FA"/>
<path fill-rule="evenodd" clip-rule="evenodd" d="M8.23363 8.23327C8.36265 8.28242 8.4274 8.42687 8.37825 8.55589L5.88958 15.0886C5.84043 15.2177 5.69598 15.2824 5.56696 15.2333C5.43793 15.1841 5.37318 15.0397 5.42233 14.9107L7.911 8.37789C7.96016 8.24887 8.1046 8.18412 8.23363 8.23327Z" fill="#EBF2FA"/>
<path fill-rule="evenodd" clip-rule="evenodd" d="M8.16085 8.24881C8.28988 8.19966 8.43432 8.26443 8.48346 8.39346L10.9511 14.8725C11.0002 15.0015 10.9355 15.146 10.8064 15.1951C10.6774 15.2442 10.533 15.1795 10.4838 15.0504L8.0162 8.57142C7.96706 8.44239 8.03182 8.29795 8.16085 8.24881Z" fill="#EBF2FA"/>
<path d="M15 15.1443C15.442 15.1443 15.866 14.9336 16.1785 14.5585C16.4911 14.1834 16.6667 13.6747 16.6667 13.1443C16.6667 12.6138 16.4911 12.1051 16.1785 11.7301C15.866 11.355 15.442 11.1443 15 11.1443L15 11.6434C15.3317 11.6434 15.6498 11.8016 15.8844 12.083C16.1189 12.3645 16.2507 12.7462 16.2507 13.1443C16.2507 13.5423 16.1189 13.9241 15.8844 14.2055C15.6498 14.487 15.3317 14.6451 15 14.6451V15.1443Z" fill="#EBF2FA"/>
<path fill-rule="evenodd" clip-rule="evenodd" d="M15.1667 14.9662C15.4943 14.9212 15.8069 14.7441 16.0505 14.4518C16.3359 14.1093 16.5 13.6393 16.5 13.1443C16.5 12.6492 16.3359 12.1792 16.0505 11.8368C15.8069 11.5445 15.4943 11.3674 15.1667 11.3224L15.1667 11.4883C15.49 11.5331 15.788 11.7071 16.0124 11.9763C16.2742 12.2904 16.4174 12.7109 16.4174 13.1443C16.4174 13.5777 16.2741 13.9981 16.0124 14.3122C15.788 14.5815 15.49 14.7555 15.1667 14.8003V14.9662ZM15.1667 15.1343C15.5475 15.0883 15.9055 14.8861 16.1785 14.5585C16.4911 14.1834 16.6667 13.6747 16.6667 13.1443C16.6667 12.6138 16.4911 12.1051 16.1785 11.7301C15.9055 11.4024 15.5475 11.2002 15.1667 11.1543C15.1115 11.1477 15.0559 11.1443 15 11.1443L15 11.6434C15.3317 11.6434 15.6498 11.8016 15.8844 12.083C16.1189 12.3645 16.2507 12.7462 16.2507 13.1443C16.2507 13.5423 16.1189 13.9241 15.8844 14.2055C15.6498 14.487 15.3317 14.6451 15 14.6451V15.1443C15.0559 15.1443 15.1115 15.1409 15.1667 15.1343Z" fill="#EBF2FA"/>
<path d="M14.8333 11.6443C15.2312 11.6443 15.6127 11.4599 15.894 11.1317C16.1753 10.8035 16.3333 10.3584 16.3333 9.89426C16.3333 9.43013 16.1753 8.98501 15.894 8.65682C15.6127 8.32863 15.2312 8.14426 14.8333 8.14426V8.64537C15.1172 8.64537 15.3895 8.77695 15.5903 9.01116C15.791 9.24537 15.9038 9.56303 15.9038 9.89426C15.9038 10.2255 15.791 10.5431 15.5903 10.7774C15.3895 11.0116 15.1172 11.1431 14.8333 11.1431V11.6443Z" fill="#EBF2FA"/>
<path fill-rule="evenodd" clip-rule="evenodd" d="M15 11.4651C15.2849 11.4223 15.5557 11.2703 15.7675 11.0232C16.0209 10.7276 16.1667 10.3218 16.1667 9.89426C16.1667 9.46674 16.0209 9.06094 15.7675 8.76529C15.5557 8.51823 15.2849 8.3662 15 8.3234L15 8.49155C15.2738 8.53397 15.5257 8.67977 15.7168 8.9027C15.9455 9.16944 16.0705 9.52642 16.0705 9.89426C16.0705 10.2621 15.9455 10.6191 15.7168 10.8858C15.5257 11.1087 15.2738 11.2545 15 11.297V11.4651ZM15 11.6334C15.3365 11.5895 15.6523 11.4137 15.894 11.1317C16.1753 10.8035 16.3333 10.3584 16.3333 9.89426C16.3333 9.43013 16.1753 8.98501 15.894 8.65682C15.6523 8.37479 15.3365 8.19897 15 8.15509C14.9449 8.14791 14.8893 8.14426 14.8333 8.14426V8.64537C15.1172 8.64537 15.3895 8.77695 15.5903 9.01116C15.791 9.24537 15.9038 9.56303 15.9038 9.89426C15.9038 10.2255 15.791 10.5431 15.5903 10.7774C15.3895 11.0116 15.1172 11.1431 14.8333 11.1431V11.6443C14.8893 11.6443 14.9449 11.6406 15 11.6334Z" fill="#EBF2FA"/>
<path d="M20.782 6.15077C20.8625 6.012 20.8155 5.83369 20.6735 5.7592C19.3922 5.08728 17.928 4.83823 16.4921 5.05236C15.0562 5.26649 13.7284 5.9319 12.6989 6.94842C12.5848 7.06112 12.5919 7.24538 12.7093 7.35463C12.8268 7.46389 13.0101 7.4567 13.1247 7.34445C14.0642 6.4241 15.2721 5.8216 16.5778 5.62689C17.8835 5.43218 19.2147 5.65603 20.3818 6.26221C20.5241 6.33615 20.7016 6.28954 20.782 6.15077Z" fill="#1F99AA"/>
<path d="M14.4855 17.618C14.4116 17.7604 14.4669 17.9363 14.6123 18.0041C15.9235 18.6155 17.3977 18.796 18.822 18.5152C20.2464 18.2343 21.5417 17.5077 22.5226 16.4443C22.6314 16.3264 22.6157 16.1426 22.4933 16.039C22.3709 15.9353 22.1881 15.951 22.0789 16.0685C21.1833 17.0317 20.0048 17.6899 18.7096 17.9453C17.4145 18.2006 16.0743 18.0391 14.8802 17.488C14.7345 17.4208 14.5594 17.4757 14.4855 17.618Z" fill="#1F99AA"/>
<path d="M26.4317 7.22031C26.5746 7.14686 26.6313 6.97124 26.5539 6.83047C25.7677 5.40129 24.6536 4.17723 23.3015 3.2599C21.9494 2.34257 20.4003 1.75972 18.7817 1.5574C18.6223 1.53747 18.4801 1.65503 18.4646 1.81496C18.4492 1.97489 18.5664 2.1166 18.7258 2.1368C20.2473 2.32959 21.7034 2.87878 22.9748 3.74139C24.2463 4.60399 25.2947 5.75401 26.0362 7.09656C26.1138 7.23721 26.2888 7.29375 26.4317 7.22031Z" fill="#1F99AA"/>
<path d="M18.651 21.7872C18.6694 21.9468 18.8138 22.0617 18.9728 22.0388C20.5873 21.8063 22.1253 21.1947 23.46 20.2523C24.7948 19.3099 25.8859 18.0652 26.6452 16.6216C26.72 16.4794 26.6601 16.3049 26.5158 16.2341C26.3716 16.1634 26.1977 16.2232 26.1226 16.3652C25.4064 17.7214 24.3796 18.8908 23.1244 19.777C21.8693 20.6631 20.4238 21.2394 18.9061 21.4605C18.7471 21.4837 18.6326 21.6276 18.651 21.7872Z" fill="#1F99AA"/>
<path d="M8.40744 16.0742C8.26197 16.1424 8.19896 16.3158 8.27124 16.4593C9.00498 17.9161 10.0739 19.1798 11.3918 20.1456C12.7096 21.1115 14.2366 21.7502 15.8467 22.0112C16.0053 22.0369 16.1518 21.9246 16.173 21.7653C16.1942 21.606 16.0822 21.4602 15.9237 21.4342C14.4101 21.1863 12.975 20.5846 11.7357 19.6763C10.4965 18.7681 9.49048 17.5808 8.79827 16.2122C8.72575 16.0688 8.55292 16.006 8.40744 16.0742Z" fill="#1F99AA"/>
<path d="M15.7774 1.91739C15.7498 1.7591 15.599 1.65271 15.4416 1.68472C13.9534 1.98724 12.5489 2.61435 11.3289 3.52272C10.1089 4.43109 9.10544 5.59684 8.38897 6.93586C8.31317 7.07752 8.37187 7.25246 8.51562 7.32425C8.65936 7.39603 8.83369 7.33747 8.90973 7.19593C9.58534 5.93837 10.5294 4.84337 11.6764 3.98941C12.8233 3.13546 14.143 2.5449 15.5414 2.25818C15.6988 2.22591 15.8049 2.07568 15.7774 1.91739Z" fill="#1F99AA"/>
</svg>
