<svg width="300" height="300" viewBox="0 0 300 300" fill="none" xmlns="http://www.w3.org/2000/svg">
<path fill-rule="evenodd" clip-rule="evenodd" d="M8.01004 139.574C5.60551 139.574 3.65625 137.402 3.65625 134.722L3.65625 8.56816C3.65625 5.88844 5.60551 3.7161 8.01004 3.7161C10.4146 3.7161 12.3638 5.88844 12.3638 8.56816L12.3638 134.722C12.3638 137.402 10.4146 139.574 8.01004 139.574Z" fill="#020E18"/>
<path fill-rule="evenodd" clip-rule="evenodd" d="M3.65625 134.78C3.65625 132.155 6.14433 130.027 9.21353 130.027L90.7203 130.027C93.7895 130.027 96.2776 132.155 96.2776 134.78C96.2776 137.406 93.7895 139.534 90.7203 139.534L9.21353 139.534C6.14433 139.534 3.65625 137.406 3.65625 134.78Z" fill="#020E18"/>
<path fill-rule="evenodd" clip-rule="evenodd" d="M212.054 134.78C212.054 132.155 214.337 130.027 217.154 130.027L271.546 130.027C274.362 130.027 276.645 132.155 276.645 134.78C276.645 137.406 274.362 139.534 271.546 139.534L217.154 139.534C214.337 139.534 212.054 137.406 212.054 134.78Z" fill="#020E18"/>
<path fill-rule="evenodd" clip-rule="evenodd" d="M212.054 66.8713C212.054 64.2459 214.337 62.1177 217.154 62.1177L271.546 62.1177C274.362 62.1177 276.645 64.2459 276.645 66.8713C276.645 69.4967 274.362 71.6249 271.546 71.6249L217.154 71.6249C214.337 71.6249 212.054 69.4967 212.054 66.8713Z" fill="#020E18"/>
<path fill-rule="evenodd" clip-rule="evenodd" d="M212.054 8.46969C212.054 5.84433 214.373 3.71606 217.234 3.71606L269.029 3.71606C271.889 3.71606 274.208 5.84433 274.208 8.46969C274.208 11.095 271.889 13.2233 269.029 13.2233L217.234 13.2233C214.373 13.2233 212.054 11.095 212.054 8.46969Z" fill="#020E18"/>
<path fill-rule="evenodd" clip-rule="evenodd" d="M153.139 5.44407C155.386 6.39804 156.514 9.20142 155.658 11.7056L112.317 138.495C111.461 140.999 108.946 142.256 106.699 141.302C104.452 140.348 103.324 137.545 104.18 135.04L147.52 8.25096C148.376 5.74679 150.892 4.49011 153.139 5.44407Z" fill="#020E18"/>
<path fill-rule="evenodd" clip-rule="evenodd" d="M151.871 5.746C154.118 4.79223 156.634 6.04913 157.49 8.55337L200.464 134.3C201.319 136.804 200.192 139.608 197.945 140.561C195.697 141.515 193.182 140.258 192.326 137.754L149.352 12.0073C148.496 9.50305 149.624 6.69978 151.871 5.746Z" fill="#020E18"/>
<path d="M270.975 139.574C278.673 139.574 286.055 135.484 291.499 128.205C296.942 120.925 300 111.052 300 100.757C300 90.4627 296.942 80.5895 291.499 73.31C286.055 66.0305 278.673 61.9409 270.975 61.9409L270.975 71.6288C276.751 71.6288 282.292 74.6977 286.376 80.1604C290.461 85.6231 292.756 93.0321 292.756 100.757C292.756 108.483 290.461 115.892 286.376 121.354C282.292 126.817 276.751 129.886 270.975 129.886V139.574Z" fill="#020E18"/>
<path fill-rule="evenodd" clip-rule="evenodd" d="M273.877 136.118C279.583 135.244 285.027 131.807 289.269 126.134C294.239 119.488 297.097 110.366 297.097 100.757C297.097 91.1492 294.239 82.0273 289.269 75.3808C285.027 69.7076 279.583 66.2706 273.877 65.3972L273.877 68.6173C279.509 69.4873 284.699 72.8638 288.606 78.0896C293.164 84.1853 295.658 92.3455 295.658 100.757C295.658 109.169 293.164 117.33 288.606 123.425C284.698 128.651 279.509 132.028 273.877 132.898V136.118ZM273.877 139.38C280.509 138.488 286.744 134.564 291.499 128.205C296.942 120.925 300 111.052 300 100.757C300 90.4627 296.942 80.5895 291.499 73.31C286.744 66.9512 280.509 63.0265 273.877 62.1354C272.917 62.0063 271.948 61.9409 270.975 61.9409L270.975 71.6288C276.751 71.6288 282.292 74.6977 286.376 80.1604C290.461 85.6231 292.756 93.0321 292.756 100.757C292.756 108.483 290.461 115.892 286.376 121.354C282.292 126.817 276.751 129.886 270.975 129.886V139.574C271.948 139.574 272.917 139.509 273.877 139.38Z" fill="#020E18"/>
<path d="M268.074 71.645C275.002 71.645 281.647 68.0666 286.546 61.697C291.445 55.3275 294.197 46.6885 294.197 37.6805C294.197 28.6726 291.445 20.0336 286.546 13.664C281.647 7.29446 275.002 3.71607 268.074 3.71606V13.4418C273.018 13.4418 277.76 15.9955 281.256 20.5412C284.752 25.0868 286.717 31.252 286.717 37.6805C286.717 44.109 284.752 50.2743 281.256 54.8199C277.76 59.3655 273.018 61.9193 268.074 61.9193V71.645Z" fill="#020E18"/>
<path fill-rule="evenodd" clip-rule="evenodd" d="M270.977 68.1682C275.939 67.3375 280.654 64.3869 284.342 59.5919C288.755 53.8537 291.294 45.9779 291.294 37.6805C291.294 29.3832 288.755 21.5073 284.342 15.7692C280.654 10.9742 275.939 8.0236 270.977 7.19289L270.977 10.4563C275.744 11.2798 280.132 14.1095 283.46 18.4361C287.442 23.6131 289.619 30.5414 289.619 37.6805C289.619 44.8196 287.442 51.748 283.46 56.925C280.132 61.2516 275.744 64.0813 270.977 64.9047V68.1682ZM270.977 71.4348C276.837 70.5832 282.336 67.1707 286.546 61.697C291.445 55.3275 294.197 46.6885 294.197 37.6805C294.197 28.6726 291.445 20.0336 286.546 13.664C282.336 8.19036 276.837 4.77792 270.977 3.92625C270.017 3.78686 269.049 3.71606 268.074 3.71606V13.4418C273.018 13.4418 277.76 15.9955 281.256 20.5412C284.752 25.0868 286.717 31.252 286.717 37.6805C286.717 44.109 284.752 50.2743 281.256 54.8199C277.76 59.3655 273.018 61.9193 268.074 61.9193V71.645C269.049 71.645 270.017 71.5742 270.977 71.4348Z" fill="#020E18"/>
<path fill-rule="evenodd" clip-rule="evenodd" d="M8.00955 298.481C5.60502 298.481 3.65576 296.309 3.65576 293.629L3.65576 167.476C3.65576 164.796 5.60502 162.624 8.00955 162.624C10.4141 162.624 12.3633 164.796 12.3633 167.476L12.3633 293.629C12.3633 296.309 10.4141 298.481 8.00955 298.481Z" fill="#020E18"/>
<path fill-rule="evenodd" clip-rule="evenodd" d="M255.407 298.015C253.002 298.015 251.053 295.843 251.053 293.163L251.053 212.295C251.053 209.616 253.002 207.443 255.407 207.443C257.811 207.443 259.76 209.616 259.76 212.295L259.76 293.163C259.76 295.843 257.811 298.015 255.407 298.015Z" fill="#020E18"/>
<path fill-rule="evenodd" clip-rule="evenodd" d="M93.0263 295.395C91.0858 296.977 88.3616 296.507 86.9417 294.344L5.00782 169.553C3.58792 167.39 4.00998 164.354 5.95051 162.772C7.89104 161.189 10.6152 161.66 12.0351 163.822L93.969 288.614C95.3889 290.777 94.9669 293.813 93.0263 295.395Z" fill="#020E18"/>
<path fill-rule="evenodd" clip-rule="evenodd" d="M106.026 290.971C106.026 288.346 108.33 286.218 111.172 286.218L193.502 286.218C196.344 286.218 198.648 288.346 198.648 290.971C198.648 293.597 196.344 295.725 193.502 295.725L111.172 295.725C108.33 295.725 106.026 293.597 106.026 290.971Z" fill="#020E18"/>
<path fill-rule="evenodd" clip-rule="evenodd" d="M106.026 225.779C106.026 223.153 108.33 221.025 111.172 221.025L193.502 221.025C196.344 221.025 198.648 223.153 198.648 225.779C198.648 228.404 196.344 230.532 193.502 230.532L111.172 230.532C108.33 230.532 106.026 228.404 106.026 225.779Z" fill="#020E18"/>
<path fill-rule="evenodd" clip-rule="evenodd" d="M106.026 164.661C106.026 162.036 108.33 159.907 111.172 159.907L193.502 159.907C196.344 159.907 198.648 162.036 198.648 164.661C198.648 167.286 196.344 169.415 193.502 169.415L111.172 169.415C108.33 169.415 106.026 167.286 106.026 164.661Z" fill="#020E18"/>
<path fill-rule="evenodd" clip-rule="evenodd" d="M212.054 164.661C212.054 162.036 214.086 159.907 216.593 159.907H295.262C297.769 159.907 299.801 162.036 299.801 164.661C299.801 167.286 297.769 169.415 295.262 169.415H216.593C214.086 169.415 212.054 167.286 212.054 164.661Z" fill="#020E18"/>
<path fill-rule="evenodd" clip-rule="evenodd" d="M5.57254 136.858C3.16801 136.858 1.21875 134.686 1.21875 132.006L1.21875 5.8521C1.21875 3.17238 3.16801 1.00003 5.57254 1.00003C7.97707 1.00003 9.92633 3.17238 9.92633 5.8521L9.92633 132.006C9.92633 134.686 7.97707 136.858 5.57254 136.858Z" fill="#178796"/>
<path fill-rule="evenodd" clip-rule="evenodd" d="M1.21875 132.064C1.21875 129.439 3.70683 127.31 6.77603 127.31L88.2828 127.31C91.352 127.31 93.8401 129.439 93.8401 132.064C93.8401 134.689 91.352 136.818 88.2828 136.818L6.77603 136.818C3.70683 136.818 1.21875 134.689 1.21875 132.064Z" fill="#178796"/>
<path fill-rule="evenodd" clip-rule="evenodd" d="M209.617 132.064C209.617 129.439 211.9 127.31 214.716 127.31L269.109 127.31C271.925 127.31 274.208 129.439 274.208 132.064C274.208 134.689 271.925 136.818 269.109 136.818L214.716 136.818C211.9 136.818 209.617 134.689 209.617 132.064Z" fill="#25BFD3"/>
<path fill-rule="evenodd" clip-rule="evenodd" d="M209.617 64.1552C209.617 61.5299 211.9 59.4016 214.716 59.4016L269.109 59.4016C271.925 59.4016 274.208 61.5299 274.208 64.1552C274.208 66.7806 271.925 68.9089 269.109 68.9089L214.716 68.9089C211.9 68.9089 209.617 66.7806 209.617 64.1552Z" fill="#25BFD3"/>
<path fill-rule="evenodd" clip-rule="evenodd" d="M209.617 5.75362C209.617 3.12827 211.936 1 214.796 1L266.591 1C269.452 1 271.77 3.12827 271.77 5.75362C271.77 8.37898 269.452 10.5072 266.591 10.5072L214.796 10.5072C211.936 10.5072 209.617 8.37898 209.617 5.75362Z" fill="#25BFD3"/>
<path fill-rule="evenodd" clip-rule="evenodd" d="M150.701 2.72801C152.948 3.68198 154.076 6.48535 153.22 8.98952L109.88 135.779C109.024 138.283 106.508 139.54 104.261 138.586C102.014 137.632 100.886 134.829 101.742 132.324L145.083 5.53489C145.939 3.03073 148.454 1.77404 150.701 2.72801Z" fill="#1FAFC2"/>
<path fill-rule="evenodd" clip-rule="evenodd" d="M149.434 3.02994C151.681 2.07616 154.196 3.33307 155.052 5.83731L198.026 131.584C198.882 134.088 197.754 136.892 195.507 137.845C193.26 138.799 190.745 137.542 189.889 135.038L146.915 9.29123C146.059 6.78699 147.187 3.98371 149.434 3.02994Z" fill="#1FAFC2"/>
<path d="M268.537 136.858C276.235 136.858 283.618 132.768 289.061 125.489C294.504 118.209 297.562 108.336 297.562 98.0414C297.563 87.7466 294.504 77.8735 289.061 70.594C283.618 63.3144 276.235 59.2249 268.537 59.2249L268.537 68.9127C274.314 68.9128 279.854 71.9817 283.939 77.4443C288.024 82.907 290.318 90.316 290.318 98.0414C290.318 105.767 288.024 113.176 283.939 118.638C279.854 124.101 274.314 127.17 268.537 127.17V136.858Z" fill="#25BFD3"/>
<path fill-rule="evenodd" clip-rule="evenodd" d="M271.44 133.402C277.146 132.528 282.589 129.091 286.831 123.418C291.801 116.772 294.66 107.65 294.66 98.0414C294.66 88.4331 291.801 79.3112 286.831 72.6648C282.589 66.9916 277.146 63.5545 271.44 62.6811L271.44 65.9012C277.071 66.7713 282.261 70.1478 286.169 75.3735C290.727 81.4693 293.221 89.6295 293.221 98.0414C293.221 106.453 290.727 114.613 286.169 120.709C282.261 125.935 277.071 129.312 271.44 130.182V133.402ZM271.44 136.663C278.072 135.772 284.306 131.848 289.061 125.489C294.504 118.209 297.562 108.336 297.562 98.0414C297.562 87.7466 294.504 77.8735 289.061 70.594C284.306 64.2352 278.072 60.3104 271.44 59.4193C270.479 59.2903 269.511 59.2249 268.537 59.2249L268.537 68.9127C274.314 68.9128 279.854 71.9817 283.939 77.4443C288.024 82.907 290.318 90.316 290.318 98.0414C290.318 105.767 288.024 113.176 283.939 118.638C279.854 124.101 274.314 127.17 268.537 127.17V136.858C269.511 136.858 270.479 136.792 271.44 136.663Z" fill="#25BFD3"/>
<path d="M265.637 68.9289C272.565 68.9289 279.209 65.3506 284.108 58.981C289.007 52.6114 291.759 43.9724 291.759 34.9645C291.759 25.9565 289.007 17.3175 284.108 10.948C279.209 4.57839 272.565 1 265.637 1V10.7258C270.581 10.7258 275.323 13.2795 278.819 17.8251C282.315 22.3708 284.279 28.536 284.279 34.9645C284.279 41.393 282.315 47.5582 278.819 52.1038C275.323 56.6495 270.581 59.2032 265.637 59.2032V68.9289Z" fill="#25BFD3"/>
<path fill-rule="evenodd" clip-rule="evenodd" d="M268.539 65.4521C273.501 64.6214 278.216 61.6708 281.904 56.8759C286.318 51.1377 288.857 43.2618 288.857 34.9645C288.857 26.6671 286.318 18.7913 281.904 13.0531C278.216 8.25813 273.501 5.30753 268.539 4.47682L268.539 7.74028C273.307 8.56372 277.695 11.3934 281.023 15.72C285.004 20.897 287.182 27.8254 287.182 34.9645C287.182 42.1036 285.004 49.0319 281.023 54.209C277.695 58.5355 273.307 61.3652 268.539 62.1887V65.4521ZM268.539 68.7187C274.399 67.8671 279.898 64.4546 284.108 58.981C289.007 52.6114 291.759 43.9724 291.759 34.9645C291.759 25.9565 289.007 17.3175 284.108 10.948C279.898 5.4743 274.399 2.06185 268.539 1.21019C267.58 1.07079 266.611 1 265.637 1V10.7258C270.581 10.7258 275.323 13.2795 278.819 17.8251C282.315 22.3708 284.279 28.536 284.279 34.9645C284.279 41.393 282.315 47.5582 278.819 52.1038C275.323 56.6495 270.581 59.2032 265.637 59.2032V68.9289C266.611 68.9289 267.58 68.8581 268.539 68.7187Z" fill="#25BFD3"/>
<path fill-rule="evenodd" clip-rule="evenodd" d="M5.57254 294.406C3.16801 294.406 1.21875 292.234 1.21875 289.554L1.21875 163.4C1.21875 160.721 3.16801 158.548 5.57254 158.548C7.97707 158.548 9.92633 160.721 9.92633 163.4L9.92633 289.554C9.92633 292.234 7.97707 294.406 5.57254 294.406Z" fill="#EBF2FA"/>
<path fill-rule="evenodd" clip-rule="evenodd" d="M252.97 293.94C250.565 293.94 248.616 291.768 248.616 289.088L248.616 208.22C248.616 205.54 250.565 203.368 252.97 203.368C255.374 203.368 257.323 205.54 257.323 208.22L257.323 289.088C257.323 291.768 255.374 293.94 252.97 293.94Z" fill="#EBF2FA"/>
<path fill-rule="evenodd" clip-rule="evenodd" d="M90.5893 291.32C88.6488 292.902 85.9246 292.432 84.5047 290.269L2.57081 165.478C1.15091 163.315 1.57297 160.279 3.5135 158.697C5.45403 157.114 8.17819 157.585 9.59809 159.747L91.532 284.539C92.9519 286.702 92.5299 289.737 90.5893 291.32Z" fill="#EBF2FA"/>
<path fill-rule="evenodd" clip-rule="evenodd" d="M103.589 286.896C103.589 284.271 105.893 282.143 108.735 282.143L191.065 282.143C193.907 282.143 196.211 284.271 196.211 286.896C196.211 289.522 193.907 291.65 191.065 291.65L108.735 291.65C105.893 291.65 103.589 289.522 103.589 286.896Z" fill="#EBF2FA"/>
<path fill-rule="evenodd" clip-rule="evenodd" d="M103.589 221.704C103.589 219.078 105.893 216.95 108.735 216.95L191.065 216.95C193.907 216.95 196.211 219.078 196.211 221.704C196.211 224.329 193.907 226.457 191.065 226.457L108.735 226.457C105.893 226.457 103.589 224.329 103.589 221.704Z" fill="#EBF2FA"/>
<path fill-rule="evenodd" clip-rule="evenodd" d="M103.589 160.586C103.589 157.961 105.893 155.832 108.735 155.832L191.065 155.832C193.907 155.832 196.211 157.961 196.211 160.586C196.211 163.211 193.907 165.34 191.065 165.34L108.735 165.34C105.893 165.34 103.589 163.211 103.589 160.586Z" fill="#EBF2FA"/>
<path fill-rule="evenodd" clip-rule="evenodd" d="M209.617 160.586C209.617 157.961 211.649 155.832 214.156 155.832H292.825C295.332 155.832 297.364 157.961 297.364 160.586C297.364 163.211 295.332 165.34 292.825 165.34H214.156C211.649 165.34 209.617 163.211 209.617 160.586Z" fill="#EBF2FA"/>
</svg>
