<svg width="175" height="121" viewBox="0 0 175 121" fill="none" xmlns="http://www.w3.org/2000/svg">
<path fill-rule="evenodd" clip-rule="evenodd" d="M1.25 75.7214C0.559644 75.7214 -1.08224e-09 75.1617 -2.41724e-09 74.4714L-6.52656e-08 41.9714C-6.66006e-08 41.281 0.559644 40.7214 1.25 40.7214C1.94036 40.7214 2.5 41.281 2.5 41.9714L2.5 74.4714C2.5 75.1617 1.94036 75.7214 1.25 75.7214Z" fill="#EBF2FA"/>
<path fill-rule="evenodd" clip-rule="evenodd" d="M91.2499 75.7214C90.5595 75.7214 89.9999 75.1617 89.9999 74.4714L89.9999 41.9714C89.9999 41.281 90.5595 40.7214 91.2499 40.7214C91.9402 40.7214 92.4999 41.281 92.4999 41.9714L92.4999 74.4714C92.4999 75.1617 91.9402 75.7214 91.2499 75.7214Z" fill="#EBF2FA"/>
<path fill-rule="evenodd" clip-rule="evenodd" d="M162.917 76.5546C162.226 76.5546 161.667 75.995 161.667 75.3046L161.667 54.4713C161.667 53.7809 162.226 53.2213 162.917 53.2213C163.607 53.2213 164.167 53.7809 164.167 54.4713L164.167 75.3046C164.167 75.995 163.607 76.5546 162.917 76.5546Z" fill="#EBF2FA"/>
<path fill-rule="evenodd" clip-rule="evenodd" d="M115.658 75.6262C115.101 76.0338 114.319 75.9127 113.911 75.3555L90.3872 43.2064C89.9795 42.6493 90.1007 41.8672 90.6578 41.4595C91.215 41.0518 91.9971 41.173 92.4048 41.7302L115.928 73.8793C116.336 74.4364 116.215 75.2185 115.658 75.6262Z" fill="#EBF2FA"/>
<path fill-rule="evenodd" clip-rule="evenodd" d="M0.833282 74.4714C0.833282 73.7811 1.39293 73.2214 2.08328 73.2214L20.4166 73.2214C21.107 73.2214 21.6666 73.7811 21.6666 74.4714C21.6666 75.1618 21.107 75.7214 20.4166 75.7214L2.08328 75.7214C1.39293 75.7214 0.833282 75.1618 0.833282 74.4714Z" fill="#EBF2FA"/>
<path fill-rule="evenodd" clip-rule="evenodd" d="M60.8333 74.4714C60.8333 73.7811 61.393 73.2214 62.0833 73.2214L75.4166 73.2214C76.107 73.2214 76.6666 73.7811 76.6666 74.4714C76.6666 75.1618 76.107 75.7214 75.4166 75.7214L62.0833 75.7214C61.393 75.7214 60.8333 75.1618 60.8333 74.4714Z" fill="#EBF2FA"/>
<path fill-rule="evenodd" clip-rule="evenodd" d="M122.5 74.4714C122.5 73.7811 123.06 73.2214 123.75 73.2214L143.75 73.2214C144.44 73.2214 145 73.7811 145 74.4714C145 75.1618 144.44 75.7214 143.75 75.7214L123.75 75.7214C123.06 75.7214 122.5 75.1618 122.5 74.4714Z" fill="#EBF2FA"/>
<path fill-rule="evenodd" clip-rule="evenodd" d="M122.5 57.8046C122.5 57.1142 123.06 56.5546 123.75 56.5546L143.75 56.5546C144.44 56.5546 145 57.1142 145 57.8046C145 58.4949 144.44 59.0546 143.75 59.0546L123.75 59.0546C123.06 59.0546 122.5 58.4949 122.5 57.8046Z" fill="#EBF2FA"/>
<path fill-rule="evenodd" clip-rule="evenodd" d="M122.5 41.9713C122.5 41.281 123.06 40.7213 123.75 40.7213L143.75 40.7213C144.44 40.7213 145 41.281 145 41.9713C145 42.6617 144.44 43.2213 143.75 43.2213L123.75 43.2213C123.06 43.2213 122.5 42.6617 122.5 41.9713Z" fill="#EBF2FA"/>
<path fill-rule="evenodd" clip-rule="evenodd" d="M150.833 41.9713C150.833 41.281 151.393 40.7213 152.083 40.7213H173.75C174.44 40.7213 175 41.281 175 41.9713C175 42.6617 174.44 43.2213 173.75 43.2213H152.083C151.393 43.2213 150.833 42.6617 150.833 41.9713Z" fill="#EBF2FA"/>
<path fill-rule="evenodd" clip-rule="evenodd" d="M60.8333 56.9714C60.8333 56.281 61.393 55.7214 62.0833 55.7214L75.4166 55.7214C76.107 55.7214 76.6666 56.281 76.6666 56.9714C76.6666 57.6617 76.107 58.2214 75.4166 58.2214L62.0833 58.2214C61.393 58.2214 60.8333 57.6617 60.8333 56.9714Z" fill="#EBF2FA"/>
<path fill-rule="evenodd" clip-rule="evenodd" d="M60.8333 41.9713C60.8333 41.281 61.393 40.7213 62.0833 40.7213L74.5833 40.7213C75.2737 40.7213 75.8333 41.281 75.8333 41.9713C75.8333 42.6617 75.2737 43.2213 74.5833 43.2213L62.0833 43.2213C61.393 43.2213 60.8333 42.6617 60.8333 41.9713Z" fill="#EBF2FA"/>
<path fill-rule="evenodd" clip-rule="evenodd" d="M41.1681 41.1663C41.8133 41.4121 42.137 42.1343 41.8912 42.7794L29.4479 75.4432C29.2021 76.0884 28.4799 76.4121 27.8348 76.1663C27.1897 75.9206 26.8659 75.1984 27.1117 74.5532L39.555 41.8894C39.8008 41.2443 40.523 40.9206 41.1681 41.1663Z" fill="#EBF2FA"/>
<path fill-rule="evenodd" clip-rule="evenodd" d="M40.8043 41.2441C41.4494 40.9984 42.1716 41.3222 42.4173 41.9673L54.7554 74.3625C55.0011 75.0076 54.6773 75.7298 54.0322 75.9755C53.387 76.2212 52.6649 75.8974 52.4191 75.2523L40.081 42.8571C39.8353 42.212 40.1591 41.4898 40.8043 41.2441Z" fill="#EBF2FA"/>
<path d="M75 75.7214C77.2101 75.7214 79.3298 74.6678 80.8926 72.7924C82.4554 70.9171 83.3333 68.3735 83.3333 65.7214C83.3333 63.0692 82.4554 60.5257 80.8926 58.6503C79.3298 56.7749 77.2101 55.7214 75 55.7214L75 58.2172C76.6585 58.2172 78.2491 59.0078 79.4219 60.4151C80.5946 61.8224 81.2535 63.7311 81.2535 65.7214C81.2535 67.7116 80.5946 69.6203 79.4219 71.0276C78.2491 72.4349 76.6585 73.2256 75 73.2256V75.7214Z" fill="#EBF2FA"/>
<path fill-rule="evenodd" clip-rule="evenodd" d="M75.8333 74.831C77.4715 74.606 79.0344 73.7205 80.2524 72.259C81.6793 70.5467 82.5 68.1967 82.5 65.7214C82.5 63.2461 81.6793 60.8961 80.2524 59.1838C79.0344 57.7223 77.4716 56.8368 75.8333 56.6118L75.8333 57.4414C77.4502 57.6655 78.9402 58.5354 80.0621 59.8816C81.3707 61.452 82.0868 63.5543 82.0868 65.7214C82.0868 67.8885 81.3707 69.9907 80.0621 71.5611C78.9402 72.9074 77.4502 73.7773 75.8333 74.0014V74.831ZM75.8333 75.6713C77.7374 75.4417 79.5274 74.4306 80.8926 72.7924C82.4554 70.9171 83.3333 68.3735 83.3333 65.7214C83.3333 63.0692 82.4554 60.5257 80.8926 58.6503C79.5274 57.0121 77.7374 56.001 75.8333 55.7715C75.5576 55.7382 75.2796 55.7214 75 55.7214L75 58.2172C76.6585 58.2172 78.2491 59.0078 79.4219 60.4151C80.5946 61.8224 81.2535 63.7311 81.2535 65.7214C81.2535 67.7116 80.5946 69.6203 79.4219 71.0276C78.2491 72.4349 76.6585 73.2256 75 73.2256V75.7214C75.2796 75.7214 75.5576 75.7045 75.8333 75.6713Z" fill="#EBF2FA"/>
<path d="M74.1667 58.2213C76.1558 58.2213 78.0635 57.2994 79.47 55.6585C80.8765 54.0176 81.6667 51.792 81.6667 49.4713C81.6667 47.1507 80.8765 44.9251 79.47 43.2841C78.0635 41.6432 76.1558 40.7213 74.1667 40.7213V43.2269C75.5862 43.2269 76.9476 43.8848 77.9514 45.0558C78.9551 46.2269 79.5191 47.8152 79.5191 49.4713C79.5191 51.1274 78.9551 52.7157 77.9514 53.8868C76.9476 55.0579 75.5862 55.7157 74.1667 55.7157V58.2213Z" fill="#EBF2FA"/>
<path fill-rule="evenodd" clip-rule="evenodd" d="M75 57.3256C76.4247 57.1116 77.7785 56.3515 78.8373 55.1162C80.1044 53.6379 80.8334 51.6089 80.8334 49.4713C80.8334 47.3337 80.1044 45.3047 78.8373 43.8265C77.7785 42.5912 76.4247 41.831 75 41.617L75 42.4578C76.3688 42.6699 77.6287 43.3989 78.5841 44.5135C79.7273 45.8472 80.3524 47.6321 80.3524 49.4713C80.3524 51.3105 79.7273 53.0954 78.5841 54.4291C77.6287 55.5437 76.3688 56.2727 75 56.4849V57.3256ZM75 58.1672C76.6825 57.9478 78.2613 57.0686 79.47 55.6585C80.8765 54.0176 81.6667 51.792 81.6667 49.4713C81.6667 47.1507 80.8765 44.9251 79.47 43.2841C78.2613 41.874 76.6825 40.9949 75 40.7755C74.7246 40.7396 74.4465 40.7213 74.1667 40.7213V43.2269C75.5862 43.2269 76.9476 43.8848 77.9514 45.0558C78.9551 46.2269 79.5191 47.8152 79.5191 49.4713C79.5191 51.1274 78.9551 52.7157 77.9514 53.8868C76.9476 55.0579 75.5862 55.7157 74.1667 55.7157V58.2213C74.4465 58.2213 74.7246 58.2031 75 58.1672Z" fill="#EBF2FA"/>
<path d="M104.639 29.4976C97.9396 25.6131 90.1197 24.1196 82.4606 25.2618C74.8015 26.404 67.7576 30.1141 62.4833 35.7841L64.61 37.7623C69.4358 32.5743 75.881 29.1796 82.889 28.1345C89.897 27.0894 97.0522 28.4559 103.182 32.0102L104.639 29.4976Z" fill="#01424B"/>
<path d="M71.7586 89.3791C78.6316 92.9469 86.5127 94.074 94.1101 92.5759C101.708 91.0777 108.571 87.0431 113.575 81.1333L111.358 79.2564C106.78 84.6639 100.5 88.3555 93.5482 89.7263C86.5966 91.0971 79.3855 90.0658 73.0968 86.8013L71.7586 89.3791Z" fill="#01424B"/>
<path d="M133.452 35.4366C129.496 27.739 123.67 21.1586 116.508 16.2995C109.346 11.4404 101.078 8.45824 92.4629 7.62689L92.1835 10.5227C100.313 11.3072 108.116 14.1214 114.874 18.7069C121.633 23.2924 127.131 29.5023 130.865 36.7665L133.452 35.4366Z" fill="#01424B"/>
<path d="M93.4215 110.381C102.019 109.389 110.23 106.253 117.3 101.261C124.37 96.2694 130.073 89.5814 133.885 81.8113L131.273 80.53C127.676 87.8625 122.294 94.1739 115.622 98.8847C108.95 103.595 101.202 106.555 93.0881 107.491L93.4215 110.381Z" fill="#01424B"/>
<path d="M40.7202 80.9884C44.3943 88.8246 49.9781 95.6123 56.9589 100.728C63.9397 105.844 72.0938 109.125 80.6727 110.268L81.0571 107.385C72.9613 106.305 65.2663 103.21 58.6786 98.3818C52.0909 93.5538 46.8215 87.1483 43.3543 79.7534L40.7202 80.9884Z" fill="#01424B"/>
<path d="M78.6373 8.15388C70.6668 9.54171 63.1336 12.7819 56.6444 17.6136C50.1552 22.4452 44.8913 28.7333 41.2768 35.9713L43.8795 37.2711C47.2905 30.4406 52.258 24.5066 58.3818 19.947C64.5056 15.3874 71.6146 12.3297 79.1363 11.02L78.6373 8.15388Z" fill="#01424B"/>
</svg>
